<?xml version="1.0" standalone="no"?>
<!DOCTYPE svg PUBLIC "-//W3C//DTD SVG 20010904//EN"
 "http://www.w3.org/TR/2001/REC-SVG-20010904/DTD/svg10.dtd">
<svg version="1.0" xmlns="http://www.w3.org/2000/svg"
 width="500.000000pt" height="500.000000pt" viewBox="0 0 500.000000 500.000000"
 preserveAspectRatio="xMidYMid meet">

<g transform="translate(0.000000,500.000000) scale(0.100000,-0.100000)"
fill="#000000" stroke="none">
<path d="M1833 4959 c-77 -10 -216 -51 -301 -89 -282 -128 -475 -398 -549
-767 -23 -118 -23 -438 0 -568 69 -385 210 -700 423 -951 72 -85 79 -111 72
-247 -5 -92 -18 -124 -75 -181 -40 -41 -42 -42 -252 -131 -74 -31 -172 -74
-219 -96 -46 -21 -85 -39 -87 -39 -1 0 -49 -25 -106 -56 -359 -194 -626 -435
-697 -626 -21 -57 -28 -283 -12 -358 21 -97 93 -197 185 -258 22 -15 42 -30
45 -33 13 -16 154 -81 235 -110 219 -76 571 -136 935 -160 341 -22 1170 -13
1170 13 0 6 -15 27 -32 47 -101 115 -186 254 -250 406 -30 71 -77 238 -90 315
-16 97 -16 374 0 470 13 77 62 252 84 305 52 118 158 305 196 344 7 7 11 19 9
25 -28 74 -30 117 -13 208 22 111 23 115 96 198 122 141 265 406 314 585 9 33
21 69 26 80 5 11 16 54 24 95 46 224 49 257 50 440 0 157 -4 201 -23 290 -61
278 -144 437 -311 599 -201 194 -531 292 -847 250z"/>
<path d="M3580 2494 c-14 -2 -59 -9 -100 -15 -84 -12 -161 -36 -265 -81 -290
-127 -520 -368 -635 -664 -103 -267 -102 -607 2 -860 77 -185 135 -273 272
-410 189 -190 382 -288 653 -334 149 -25 221 -25 370 0 122 21 188 38 257 67
57 24 210 104 216 113 3 4 12 11 21 16 49 27 191 158 244 224 68 85 87 114
126 190 81 156 98 205 129 382 29 168 24 291 -21 483 -15 65 -75 220 -102 265
-93 156 -218 304 -317 375 -23 17 -54 40 -68 51 -69 55 -284 148 -397 173
-117 25 -300 37 -385 25z m280 -769 l0 -245 245 0 245 0 0 -170 0 -170 -245 0
-245 0 0 -250 0 -250 -165 0 -165 0 0 250 0 250 -250 0 -250 0 0 170 0 170
250 0 250 0 0 245 0 245 165 0 165 0 0 -245z"/>
</g>
</svg>
